HIERARCHY
ROOT Hips
{
	OFFSET 0.000000 0.000000 0.000000
	CHANNELS 6 Xposition Yposition Zposition Xrotation Yrotation Zrotation
	JOINT LeftUpLeg_virtual
	{
		OFFSET 0.000000 0.000000 0.000000
		CHANNELS 3 Xrotation Yrotation Zrotation
		JOINT LeftUpLeg
		{
			OFFSET 10.205400 -3.823500 0.155100
			CHANNELS 3 Xrotation Yrotation Zrotation
			JOINT LeftLeg
			{
				OFFSET 0.708757 -12.982077 0.567790
				CHANNELS 3 Xrotation Yrotation Zrotation
				JOINT LeftFoot
				{
					OFFSET -0.708756 -10.717838 -2.184338
					CHANNELS 3 Xrotation Yrotation Zrotation
					JOINT LeftToeBase
					{
						OFFSET 0.108149 -7.191104 7.560241
						CHANNELS 3 Xrotation Yrotation Zrotation
						JOINT LeftToe_End
						{
							OFFSET 0.070230 0.081724 4.490308
							CHANNELS 3 Xrotation Yrotation Zrotation
							End Site
							{
								OFFSET 0 0 0
							}
						}
					}
				}
			}
		}
	}
	JOINT RightUpLeg_virtual
	{
		OFFSET 0.000000 0.000000 0.000000
		CHANNELS 3 Xrotation Yrotation Zrotation
		JOINT RightUpLeg
		{
			OFFSET -10.205400 -3.823500 0.005500
			CHANNELS 3 Xrotation Yrotation Zrotation
			JOINT RightLeg
			{
				OFFSET -0.708756 -12.982134 0.610632
				CHANNELS 3 Xrotation Yrotation Zrotation
				JOINT RightFoot
				{
					OFFSET 0.708754 -10.717769 -1.945823
					CHANNELS 3 Xrotation Yrotation Zrotation
					JOINT RightToeBase
					{
						OFFSET -0.108140 -7.191069 7.372968
						CHANNELS 3 Xrotation Yrotation Zrotation
						JOINT RightToe_End
						{
							OFFSET -0.070227 0.081735 4.479403
							CHANNELS 3 Xrotation Yrotation Zrotation
							End Site
							{
								OFFSET 0 0 0
							}
						}
					}
				}
			}
		}
	}
	JOINT Spine_virtual
	{
		OFFSET 0.000000 0.000000 0.000000
		CHANNELS 3 Xrotation Yrotation Zrotation
		JOINT Spine
		{
			OFFSET 0.000000 6.876099 0.125700
			CHANNELS 3 Xrotation Yrotation Zrotation
			JOINT Spine1
			{
				OFFSET 0.000000 5.730043 0.104720
				CHANNELS 3 Xrotation Yrotation Zrotation
				JOINT Spine1_split
				{
					OFFSET 0.000000 5.730043 0.104720
					CHANNELS 3 Xrotation Yrotation Zrotation
					JOINT Spine2
					{
						OFFSET 0.000000 5.730043 0.104720
						CHANNELS 3 Xrotation Yrotation Zrotation
						JOINT Neck_virtual
						{
							OFFSET 0.000000 0.000000 0.000000
							CHANNELS 3 Xrotation Yrotation Zrotation
							JOINT Neck
							{
								OFFSET 0.000000 10.314075 0.188496
								CHANNELS 3 Xrotation Yrotation Zrotation
								JOINT Head
								{
									OFFSET 0.000000 7.643700 -2.377400
									CHANNELS 3 Xrotation Yrotation Zrotation
									JOINT HeadTop_End
									{
										OFFSET 0.000000 43.788605 -13.619600
										CHANNELS 3 Xrotation Yrotation Zrotation
										End Site
										{
											OFFSET 0 0 0
										}
									}
								}
							}
						}
						JOINT LeftShoulder_virtual
						{
							OFFSET 0.000000 0.000000 0.000000
							CHANNELS 3 Xrotation Yrotation Zrotation
							JOINT LeftShoulder
							{
								OFFSET 2.196100 4.412489 0.087492
								CHANNELS 3 Xrotation Yrotation Zrotation
								JOINT LeftShoulder_split
								{
									OFFSET 2.196100 4.412489 0.087492
									CHANNELS 3 Xrotation Yrotation Zrotation
									JOINT LeftArm
									{
										OFFSET 8.771219 -2.981674 -0.026999
										CHANNELS 3 Xrotation Yrotation Zrotation
										JOINT LeftForeArm
										{
											OFFSET 8.512804 0.000000 -0.000000
											CHANNELS 3 Xrotation Yrotation Zrotation
											JOINT LeftHand
											{
												OFFSET 18.484802 0.000000 -0.000000
												CHANNELS 3 Xrotation Yrotation Zrotation
												End Site
												{
													OFFSET 0 0 0
												}
											}
										}
									}
								}
							}
						}
						JOINT RightShoulder_virtual
						{
							OFFSET 0.000000 0.000000 0.000000
							CHANNELS 3 Xrotation Yrotation Zrotation
							JOINT RightShoulder
							{
								OFFSET -2.196100 4.412496 0.070690
								CHANNELS 3 Xrotation Yrotation Zrotation
								JOINT RightShoulder_split
								{
									OFFSET -2.196100 4.412496 0.070690
									CHANNELS 3 Xrotation Yrotation Zrotation
									JOINT RightArm
									{
										OFFSET -8.771282 -2.981682 -0.094208
										CHANNELS 3 Xrotation Yrotation Zrotation
										JOINT RightForeArm
										{
											OFFSET -8.494598 0.000000 0.000000
											CHANNELS 3 Xrotation Yrotation Zrotation
											JOINT RightHand
											{
												OFFSET -18.483803 0.000000 0.000001
												CHANNELS 3 Xrotation Yrotation Zrotation
												End Site
												{
													OFFSET 0 0 0
												}
											}
										}
									}
								}
							}
						}
					}
				}
			}
		}
	}
}
MOTION
Frames: 8
Frame Time: 0.03333333
1.449562 30.798460 -0.526999 0.000000 0.000000 0.000000 -5.981329 -48.873996 -5.454394 -33.639030 -3.938266 15.136816 33.540296 -7.635775 -0.339992 3.336274 -7.779030 -12.473431 -4.236121 -3.364643 1.482500 0.000000 0.000000 0.000000 -5.135863 -44.911369 -5.241455 4.429265 -20.269575 -12.399428 39.959438 0.530625 -2.416005 -29.388962 -10.705386 20.581728 -0.211191 -0.774614 0.098514 0.000000 0.000000 0.000000 -9.790631 -44.027929 -8.502043 6.912260 5.291769 -0.897883 12.489101 9.506444 -3.773477 1.077291 2.807405 -0.135853 0.000000 0.000000 0.000000 10.752809 8.636289 -4.196824 -5.917983 -3.510412 3.494857 -13.100780 21.671912 1.090670 0.000000 0.000000 0.000000 11.445684 9.146513 -3.937624 2.833180 -2.179281 -4.497704 -2.235366 -0.766618 -4.006169 -15.771515 -1.435728 -58.006775 18.176510 -54.032196 8.339005 0.000000 0.000000 0.000000 11.876686 9.196796 -4.025857 1.059315 10.569818 11.409050 -0.160655 2.847200 2.483113 4.125415 -19.873137 62.822338 -1.104124 47.002278 3.303908 0.000000 0.000000 0.000000 
1.391448 30.702208 -0.598686 0.000000 0.000000 0.000000 -3.922402 -47.089500 -4.341845 -34.676143 -4.067714 15.368066 33.406370 -6.832016 -0.482377 3.768438 -7.805837 -11.091547 -3.629075 -3.296140 1.067642 0.000000 0.000000 0.000000 -4.186640 -43.256500 -4.844701 3.472270 -19.915725 -11.527754 40.030957 1.282928 -4.072252 -29.357328 -10.422168 22.486719 -0.060660 -0.935730 0.282674 0.000000 0.000000 0.000000 -7.608022 -43.200240 -7.350085 6.875539 5.455697 -0.826308 12.512818 9.539748 -3.823544 0.255848 1.409350 0.212468 0.000000 0.000000 0.000000 10.474385 8.716384 -4.048900 -5.909334 -3.412265 3.104191 -12.672700 21.772338 1.270030 0.000000 0.000000 0.000000 11.531958 9.105829 -4.046078 2.863165 -2.257142 -4.800672 -2.075851 -0.361201 -3.610117 -12.579463 -0.959344 -57.101812 19.711685 -56.042593 8.991303 0.000000 0.000000 0.000000 11.886105 9.383318 -3.806414 1.283430 10.757294 11.141095 -0.146577 3.737243 1.049058 3.381127 -20.106803 61.736666 -0.060363 47.877061 2.185186 0.000000 0.000000 0.000000 
1.206976 30.399595 -0.870827 0.000000 0.000000 0.000000 -0.948637 -43.794183 -3.071033 -38.945629 -4.021318 16.508680 34.134441 -5.768488 0.183100 5.994554 -8.752888 -9.726674 -3.640846 -3.262639 0.655802 0.000000 0.000000 0.000000 -1.742644 -39.516493 -4.061786 1.373292 -19.537927 -9.876696 41.326384 2.535047 -6.788164 -29.206039 -9.381047 24.189883 -0.319792 -0.877018 0.072788 0.000000 0.000000 0.000000 -4.531696 -40.540533 -6.094131 7.191477 5.338423 -1.004513 12.597672 9.349431 -3.572792 0.074976 0.074381 0.760530 0.000000 0.000000 0.000000 10.272613 8.615824 -3.541354 -5.916777 -3.530089 2.425039 -11.930963 21.668148 1.277716 0.000000 0.000000 0.000000 11.683124 8.871998 -3.866749 2.923744 -2.711536 -5.033230 -2.288485 0.002597 -2.821377 -6.878107 -0.318011 -55.947989 19.732857 -60.940013 8.183297 0.000000 0.000000 0.000000 11.948934 9.398964 -3.291608 1.610236 10.570120 10.453762 -0.032619 3.819934 0.378703 3.378104 -18.497662 60.540932 3.039204 49.521149 -1.047020 0.000000 0.000000 0.000000 
0.973225 29.933178 -1.360085 0.000000 0.000000 0.000000 2.595439 -39.420509 -2.048629 -46.262056 -3.901247 18.394782 35.632458 -4.590175 1.375867 9.611715 -10.719395 -8.425408 -4.361819 -3.246401 0.812305 0.000000 0.000000 0.000000 1.669695 -34.596831 -3.353838 -1.928612 -19.317757 -7.539030 44.339023 3.911021 -10.376014 -29.425917 -7.939887 25.304367 -1.131259 -0.648341 -0.394556 0.000000 0.000000 0.000000 -0.732639 -36.731706 -4.982828 7.691966 5.003364 -1.389159 12.703029 8.974404 -3.090226 0.446814 -1.009084 0.884613 0.000000 0.000000 0.000000 10.246328 8.324900 -2.810610 -6.124767 -3.748273 1.606000 -11.045715 21.499784 1.026577 0.000000 0.000000 0.000000 11.843698 8.521839 -3.450906 2.974383 -3.349003 -5.034680 -2.431996 -0.170765 -1.649267 0.207037 0.285355 -54.807893 18.328975 -67.769069 6.167746 0.000000 0.000000 0.000000 12.096317 9.233437 -2.625282 1.921421 9.999762 9.506284 0.474948 3.749003 0.439174 3.929120 -15.464013 59.630864 7.978609 51.710143 -6.212789 0.000000 0.000000 0.000000 
0.694420 29.335489 -1.919970 0.000000 0.000000 0.000000 6.461483 -34.531056 -1.495589 -55.491814 -3.929851 20.537858 38.314349 -3.221022 2.837225 13.825753 -13.106070 -6.672962 -5.139883 -3.145124 1.469163 0.000000 0.000000 0.000000 5.578173 -29.428789 -2.901047 -6.345308 -19.589070 -4.744603 50.047935 4.902573 -14.596143 -30.155135 -6.471662 25.707244 -2.222394 -0.303163 -0.982709 0.000000 0.000000 0.000000 3.366706 -32.612511 -4.260459 8.230466 4.595913 -1.875230 12.810267 8.467344 -2.509855 1.169241 -1.624163 0.776688 0.000000 0.000000 0.000000 10.494082 7.879354 -2.056883 -6.823444 -3.926720 0.776155 -10.271097 21.431354 0.618161 0.000000 0.000000 0.000000 12.041341 8.107915 -2.936975 3.027213 -3.908568 -4.710723 -2.043516 -1.009602 -0.560528 7.103458 0.574620 -54.268633 15.620165 -74.785066 3.002483 0.000000 0.000000 0.000000 12.376334 8.881280 -1.979303 2.162273 8.920770 8.364989 1.312556 3.702533 0.740851 4.685890 -11.588920 59.343819 14.305931 54.055340 -12.914091 0.000000 0.000000 0.000000 
0.416111 28.592119 -2.441307 0.000000 0.000000 0.000000 10.463822 -29.677401 -1.454243 -65.683771 -3.998051 22.273780 41.831173 -1.314937 4.154135 17.261927 -15.124721 -4.091889 -5.003201 -2.830152 2.204609 0.000000 0.000000 0.000000 9.718875 -24.699554 -2.732877 -12.168641 -20.578361 -1.938696 59.049922 4.826725 -18.960421 -31.136596 -5.235313 25.667972 -3.304348 0.044647 -1.584334 0.000000 0.000000 0.000000 7.723976 -29.040294 -3.776377 8.664242 4.346465 -2.320519 12.914616 7.901463 -1.943569 1.967737 -1.377502 0.664160 0.000000 0.000000 0.000000 10.990275 7.387431 -1.432932 -8.325954 -4.080899 -0.025789 -9.790160 21.581591 0.143649 0.000000 0.000000 0.000000 12.266745 7.690124 -2.371571 3.069436 -4.037015 -3.939247 -1.583236 -2.085403 0.282175 12.716304 0.067304 -54.763446 12.572059 -79.815781 -0.335756 0.000000 0.000000 0.000000 12.789399 8.405495 -1.490698 2.361073 7.195844 6.982190 2.355220 3.453336 1.190363 4.799776 -7.873351 59.736541 20.956429 55.660243 -20.142600 0.000000 0.000000 0.000000 
0.209946 27.655533 -3.030310 0.000000 0.000000 0.000000 14.530556 -24.845653 -1.837896 -76.291833 -3.933214 23.078697 45.782082 1.179562 5.164779 18.930597 -16.740121 -1.486813 -3.927221 -2.297392 2.383904 0.000000 0.000000 0.000000 13.590448 -20.793032 -2.908679 -19.512691 -22.179666 0.551622 70.602989 3.301729 -22.706843 -32.074445 -4.732193 25.772838 -4.506439 0.182796 -2.006167 0.000000 0.000000 0.000000 12.127054 -26.065907 -3.463513 8.995310 4.300577 -2.708386 13.025924 7.349279 -1.435691 2.322043 -0.575612 0.725163 0.000000 0.000000 0.000000 11.629889 6.877312 -0.966248 -10.875603 -4.175186 -0.719490 -9.718925 21.820434 -0.138761 0.000000 0.000000 0.000000 12.547854 7.289500 -1.828647 3.106734 -3.507532 -2.698462 -1.640345 -2.840768 0.919239 15.953633 -1.434017 -56.408879 12.855930 -81.840358 -0.005937 0.000000 0.000000 0.000000 13.348757 7.868918 -1.156631 2.505193 4.786730 5.159032 3.507059 3.537474 1.396790 3.409943 -5.014743 60.967839 26.326621 55.896571 -26.434010 0.000000 0.000000 0.000000 
0.093851 26.524233 -3.517799 0.000000 0.000000 0.000000 18.454080 -20.463166 -2.453502 -86.806643 -4.161582 22.529521 50.421884 3.430661 5.989969 19.958014 -18.485753 -0.329039 -3.342920 -1.662476 1.942748 0.000000 0.000000 0.000000 17.116563 -17.358653 -3.301868 -27.784134 -23.959160 2.439391 82.915478 0.469750 -25.198072 -33.399615 -5.167717 25.651976 -5.147800 0.072367 -2.092820 0.000000 0.000000 0.000000 16.319567 -23.554298 -3.217861 9.229265 4.467026 -3.068344 13.210540 6.793933 -0.966471 2.069313 0.140591 0.668889 0.000000 0.000000 0.000000 12.302957 6.424928 -0.639066 -14.537834 -4.190981 -1.333204 -10.176371 22.077506 0.032883 0.000000 0.000000 0.000000 13.024773 6.909780 -1.322069 3.160619 -2.227390 -1.018193 -2.155805 -2.588255 0.850581 16.047226 -3.722690 -59.355027 16.743877 -80.477462 4.490700 0.000000 0.000000 0.000000 14.027619 7.322998 -0.923129 2.633867 1.834196 2.751722 4.526522 3.617489 1.475979 0.696259 -2.542273 62.999507 28.696579 54.573939 -30.026481 0.000000 0.000000 0.000000 
